Results
version=1
nRows=16
nColumns=21
inDegrees=yes
endheader
time	Thorax_pitch	Thorax_roll	Thorax_yaw	Thorax_Tx	Thorax_Ty	Thorax_Tz	L_shoulder_flex-ext	L_shoulder_adb-add	L_shoulder_LAR	L_elbow_flex-ext	L_forearm_pron-sup	L_wrist_flex-ext	L_MCP_flex-ext	R_shoulder_flex-ext	R_shoulder_adb-add	R_shoulder_LAR	R_elbow_flex-ext	R_forearm_pron-sup	R_wrist_flex-ext	R_MCP_flex-ext
      1.22500000	      0.00000000	      0.00000000	    166.89069868	     -0.01441164	      0.16115235	      0.18214919	      0.00000000	      0.00000000	      0.00000000	    -67.49998635	     49.99999299	      0.00000000	      0.00000000	     47.98775106	    -13.06552578	     39.65902796	    -58.76009607	    149.41522403	    -57.17867995	     83.04455947
      1.22510000	      0.00000000	      0.00000000	    166.89102020	     -0.01453749	      0.16118043	      0.18212991	      0.00000000	      0.00000000	      0.00000000	    -67.49998635	     49.99999299	      0.00000000	      0.00000000	     48.00471026	    -13.05220883	     39.66067009	    -58.76109764	    149.35358036	    -57.06227344	     83.32440658
      1.22520000	      0.00000000	      0.00000000	    166.87338564	     -0.01468301	      0.16123044	      0.18211323	      0.00000000	      0.00000000	      0.00000000	    -67.49998635	     49.99999299	      0.00000000	      0.00000000	     48.01435342	    -13.04336604	     39.65656512	    -58.72075188	    149.43478612	    -57.05458410	     83.33028477
      1.22530000	      0.00000000	      0.00000000	    166.86540792	     -0.01477207	      0.16125559	      0.18207741	      0.00000000	      0.00000000	      0.00000000	    -67.49998635	     49.99999299	      0.00000000	      0.00000000	     47.99106769	    -13.00877809	     39.67898405	    -58.79352563	    149.34661299	    -56.93608097	     83.10482754
      1.22540000	      0.00000000	      0.00000000	    166.88202685	     -0.01492444	      0.16131017	      0.18208034	      0.00000000	      0.00000000	      0.00000000	    -67.49998635	     49.99999299	      0.00000000	      0.00000000	     48.07198448	    -13.02500704	     39.67142849	    -58.63679395	    149.59539103	    -57.15707053	     82.84786141
      1.22550000	      0.00000000	      0.00000000	    166.87407776	     -0.01502931	      0.16134780	      0.18209144	      0.00000000	      0.00000000	      0.00000000	    -67.49998635	     49.99999299	      0.00000000	      0.00000000	     48.05614468	    -13.03617053	     39.74828751	    -58.64850242	    149.33621630	    -57.00881208	     83.43644076
      1.22560000	      0.00000000	      0.00000000	    166.86332810	     -0.01515614	      0.16137332	      0.18207386	      0.00000000	      0.00000000	      0.00000000	    -67.49998635	     49.99999299	      0.00000000	      0.00000000	     48.04535920	    -13.03744104	     39.79132232	    -58.64074355	    149.26420312	    -56.94956260	     83.65032981
      1.22570000	      0.00000000	      0.00000000	    166.84168711	     -0.01530317	      0.16141614	      0.18208067	      0.00000000	      0.00000000	      0.00000000	    -67.49998635	     49.99999299	      0.00000000	      0.00000000	     48.04199284	    -13.03911508	     39.81652221	    -58.59516783	    149.27309571	    -56.94045552	     83.68225987
      1.22580000	      0.00000000	      0.00000000	    166.84659066	     -0.01540403	      0.16145504	      0.18205157	      0.00000000	      0.00000000	      0.00000000	    -67.49998635	     49.99999299	      0.00000000	      0.00000000	     48.05696195	    -13.03081649	     39.83918804	    -58.60509761	    149.18255131	    -56.83317675	     84.00331931
      1.22590000	      0.00000000	      0.00000000	    166.82802948	     -0.01552622	      0.16145641	      0.18209848	      0.00000000	      0.00000000	      0.00000000	    -67.49998635	     49.99999299	      0.00000000	      0.00000000	     48.01915784	    -13.05649701	     39.86333753	    -58.52559175	    149.42931906	    -56.77045692	     83.86729654
      1.22600000	      0.00000000	      0.00000000	    166.82953865	     -0.01565848	      0.16150164	      0.18205602	      0.00000000	      0.00000000	      0.00000000	    -67.49998635	     49.99999299	      0.00000000	      0.00000000	     48.04834203	    -13.03788202	     39.93054611	    -58.54691966	    149.05357245	    -56.79030724	     84.11275052
      1.22610000	      0.00000000	      0.00000000	    166.83115585	     -0.01578541	      0.16157021	      0.18203590	      0.00000000	      0.00000000	      0.00000000	    -67.49998635	     49.99999299	      0.00000000	      0.00000000	     48.09100377	    -13.02456774	     39.89643967	    -58.50235432	    149.21942649	    -56.79576949	     84.00863326
      1.22620000	      0.00000000	      0.00000000	    166.83186781	     -0.01589959	      0.16159368	      0.18202094	      0.00000000	      0.00000000	      0.00000000	    -67.49998635	     49.99999299	      0.00000000	      0.00000000	     48.09647851	    -13.01831459	     39.94033405	    -58.49282245	    149.15673862	    -56.77534697	     84.00395735
      1.22630000	      0.00000000	      0.00000000	    166.83027799	     -0.01601681	      0.16163844	      0.18202292	      0.00000000	      0.00000000	      0.00000000	    -67.49998635	     49.99999299	      0.00000000	      0.00000000	     48.11474358	    -13.02292887	     39.95600543	    -58.45830934	    149.14192946	    -56.74413123	     84.17780876
      1.22640000	      0.00000000	      0.00000000	    166.81838159	     -0.01618937	      0.16170153	      0.18198458	      0.00000000	      0.00000000	      0.00000000	    -67.49998635	     49.99999299	      0.00000000	      0.00000000	     48.16378931	    -13.00150995	     39.91867696	    -58.32631519	    149.53963946	    -57.09721364	     82.91187433
      1.22650000	      0.00000000	      0.00000000	    166.82668137	     -0.01628763	      0.16173050	      0.18198233	      0.00000000	      0.00000000	      0.00000000	    -67.49998635	     49.99999299	      0.00000000	      0.00000000	     48.16212679	    -13.00680169	     40.02176268	    -58.32419847	    149.37744121	    -57.06641009	     83.01472562
